# xmcd
#
# Track frame offsets: 
#        182
#        16835
#        34277
#        55025
#        74837
#        97055
#        111120
#        126250
#        139752
#        155430
#        171385
#
# Disc length: 2490 seconds
#
# Revision: 0
# Processed by: cddbd v1.4PL0 Copyright (c) Steve Scherf et al.
# Submitted via: ExactAudioCopy v0.90b4
#
DISCID=9e09b80b
DTITLE=Roberto Ciotti - King of Nothing
DYEAR=1997
DGENRE=Blues
TTITLE0=Low Down
TTITLE1=King Of Nothing
TTITLE2=Ordinary Man Blues
TTITLE3=Hey Joe
TTITLE4=Travelin' Man
TTITLE5=Unlucky Joe
TTITLE6=Crossroads
TTITLE7=Sexy Mama
TTITLE8=The Game
TTITLE9=One Way Boogie
TTITLE10=Love In Vain
EXTD=
EXTT0=
EXTT1=
EXTT2=
EXTT3=
EXTT4=
EXTT5=
EXTT6=
EXTT7=
EXTT8=
EXTT9=
EXTT10=
PLAYORDER=
